<svg id="visual" viewBox="0 0 900 600" width="900" height="600" xmlns="http://www.w3.org/2000/svg" xmlns:xlink="http://www.w3.org/1999/xlink" version="1.1"><rect x="0" y="0" width="900" height="600" fill="#0B090A"></rect><path d="M0 328L129 328L129 377L257 377L257 339L386 339L386 379L514 379L514 344L643 344L643 310L771 310L771 370L900 370L900 321L900 601L900 601L771 601L771 601L643 601L643 601L514 601L514 601L386 601L386 601L257 601L257 601L129 601L129 601L0 601Z" fill="#660708"></path><path d="M0 424L129 424L129 436L257 436L257 409L386 409L386 417L514 417L514 437L643 437L643 411L771 411L771 426L900 426L900 404L900 601L900 601L771 601L771 601L643 601L643 601L514 601L514 601L386 601L386 601L257 601L257 601L129 601L129 601L0 601Z" fill="#7a0c0f"></path><path d="M0 482L129 482L129 469L257 469L257 440L386 440L386 467L514 467L514 485L643 485L643 455L771 455L771 495L900 495L900 440L900 601L900 601L771 601L771 601L643 601L643 601L514 601L514 601L386 601L386 601L257 601L257 601L129 601L129 601L0 601Z" fill="#8f1115"></path><path d="M0 527L129 527L129 510L257 510L257 522L386 522L386 549L514 549L514 524L643 524L643 524L771 524L771 531L900 531L900 553L900 601L900 601L771 601L771 601L643 601L643 601L514 601L514 601L386 601L386 601L257 601L257 601L129 601L129 601L0 601Z" fill="#a4161a"></path></svg>